<?xml version="1.0" encoding="iso-8859-1"?>
<!-- Generator: Adobe Illustrator 19.0.0, SVG Export Plug-In . SVG Version: 6.00 Build 0)  -->
<svg version="1.1" id="Layer_1" xmlns="http://www.w3.org/2000/svg" xmlns:xlink="http://www.w3.org/1999/xlink" x="0px" y="0px"
	 viewBox="0 0 512 512" style="enable-background:new 0 0 512 512;" xml:space="preserve">
<g>
	<g>
		<path d="M444.335,401.119c-1.044-27.347-10.849-53.96-27.893-75.414c-7.759-9.768-13.783-20.713-17.908-32.538
			c-4.118-11.774-6.205-24.088-6.205-36.598v-21.794c0-63.077-43.061-116.279-101.327-131.773V35.009
			C291.002,15.704,275.298,0,255.993,0c-19.304,0-35.009,15.704-35.009,35.009v67.953c-23.009,6.073-44.112,18.131-61.395,35.407
			c-25.752,25.75-39.933,59.988-39.933,96.405v21.794c0,25.009-8.564,49.563-24.113,69.135
			c-9.01,11.343-16.004,24.051-20.788,37.763c-4.248,12.15-6.625,24.797-7.106,37.657c-10.355,4.649-17.589,15.05-17.589,27.118
			c0,16.385,13.329,29.714,29.714,29.714h113.878c4.36,30.51,30.651,54.044,62.348,54.044s57.988-23.534,62.348-54.044h113.877
			c16.385,0,29.714-13.329,29.714-29.714C461.937,416.17,454.697,405.765,444.335,401.119z M238.888,35.009
			c0-9.432,7.674-17.106,17.106-17.106c9.431,0,17.106,7.673,17.106,17.106v64.5c-5.605-0.704-11.313-1.071-17.106-1.071
			c-5.765,0-11.475,0.358-17.106,1.059V35.009z M91.657,369.369c4.121-11.818,10.145-22.763,17.903-32.53
			c18.055-22.727,27.998-51.235,27.998-80.271v-21.794c0-31.636,12.32-61.377,34.688-83.745
			c22.381-22.37,52.123-34.689,83.748-34.689c65.305,0,118.433,53.129,118.433,118.434v21.794c0,14.528,2.425,28.83,7.207,42.502
			c4.786,13.717,11.78,26.425,20.791,37.769c13.999,17.622,22.312,39.286,23.835,61.688H85.722
			C86.387,388.581,88.358,378.802,91.657,369.369z M255.998,494.097c-21.8,0-40.033-15.551-44.196-36.141h88.392
			C296.032,478.547,277.798,494.097,255.998,494.097z M432.222,440.053H79.772c-6.512,0-11.811-5.298-11.811-11.811
			c0-6.513,5.298-11.811,11.811-11.811h352.45c6.513,0,11.811,5.298,11.811,11.811C444.034,434.755,438.735,440.053,432.222,440.053
			z"/>
	</g>
</g>
<g>
</g>
<g>
</g>
<g>
</g>
<g>
</g>
<g>
</g>
<g>
</g>
<g>
</g>
<g>
</g>
<g>
</g>
<g>
</g>
<g>
</g>
<g>
</g>
<g>
</g>
<g>
</g>
<g>
</g>
</svg>
