<svg width="512" height="512" viewBox="0 0 24 24" fill="none" xmlns="http://www.w3.org/2000/svg">
<path fill-rule="evenodd" clip-rule="evenodd" d="M2.44044 10.2841L5.74755 4.28409C6.35499 3.18202 7.49767 2.5 8.73669 2.5H15.2633C16.5023 2.5 17.645 3.18202 18.2525 4.28409L21.5596 10.2841C22.1468 11.3495 22.1468 12.6505 21.5596 13.7159L18.2525 19.7159C17.645 20.818 16.5023 21.5 15.2633 21.5H8.73669C7.49767 21.5 6.35499 20.818 5.74755 19.7159L2.44044 13.7159C1.85319 12.6505 1.85319 11.3495 2.44044 10.2841ZM3.72151 11.0195L7.02861 5.01948C7.37572 4.38972 8.02868 4 8.73669 4H15.2633C15.9713 4 16.6243 4.38972 16.9714 5.01948L20.2785 11.0195C20.6141 11.6283 20.6141 12.3717 20.2785 12.9805L16.9714 18.9805C16.6243 19.6103 15.9713 20 15.2633 20H8.73669C8.02868 20 7.37572 19.6103 7.02861 18.9805L3.72151 12.9805C3.38593 12.3717 3.38593 11.6283 3.72151 11.0195Z" fill="#030D45"/>
<path fill-rule="evenodd" clip-rule="evenodd" d="M12 9.75C10.7824 9.75 9.79526 10.7574 9.79526 12C9.79526 13.2426 10.7824 14.25 12 14.25C13.2176 14.25 14.2047 13.2426 14.2047 12C14.2047 10.7574 13.2176 9.75 12 9.75ZM8.32544 12C8.32544 9.92893 9.9706 8.25 12 8.25C14.0294 8.25 15.6746 9.92893 15.6746 12C15.6746 14.0711 14.0294 15.75 12 15.75C9.9706 15.75 8.32544 14.0711 8.32544 12Z" fill="#030D45"/>
</svg>
